<?xml version="1.0" standalone="no"?>
<!DOCTYPE svg PUBLIC "-//W3C//DTD SVG 20010904//EN"
 "http://www.w3.org/TR/2001/REC-SVG-20010904/DTD/svg10.dtd">
<svg version="1.0" xmlns="http://www.w3.org/2000/svg"
 width="1000.000000pt" height="377.000000pt" viewBox="0 0 1000.000000 377.000000"
 preserveAspectRatio="xMidYMid meet">

<g transform="translate(0.000000,377.000000) scale(0.100000,-0.100000)"
fill="#000000" stroke="none">
<path d="M1870 3253 c-251 -25 -547 -103 -752 -196 l-75 -34 -51 -124 c-104
-254 -162 -499 -182 -775 -27 -369 50 -792 212 -1155 l29 -66 111 -47 c307
-130 578 -192 878 -203 348 -12 716 56 1037 193 92 39 93 39 117 94 287 640
295 1285 25 1946 l-50 120 -112 48 c-338 143 -646 208 -980 204 -95 0 -188 -3
-207 -5z m405 -53 c256 -24 513 -90 759 -195 l89 -39 30 -65 c77 -170 148
-412 184 -626 28 -171 25 -536 -6 -710 -30 -167 -78 -337 -144 -500 l-52 -130
-55 -27 c-84 -41 -242 -96 -370 -128 -515 -130 -1031 -88 -1520 124 -88 38
-97 44 -117 86 -74 151 -153 419 -190 645 -27 169 -25 536 5 705 39 219 101
426 177 592 l25 55 128 51 c338 135 716 193 1057 162z"/>
<path d="M2026 3019 c-72 -10 -167 -54 -222 -102 -71 -62 -124 -190 -124 -300
0 -112 48 -207 170 -342 103 -113 159 -212 191 -336 19 -73 22 -121 26 -371
l5 -288 23 0 23 0 4 283 c6 325 14 378 83 523 33 68 63 111 122 175 140 150
183 236 183 363 0 255 -218 432 -484 395z"/>
<path d="M1461 2365 c-99 -28 -163 -83 -206 -178 -55 -119 -40 -249 36 -332
43 -47 69 -59 219 -100 135 -37 220 -71 289 -115 101 -65 178 -188 188 -302 5
-48 9 -58 24 -58 18 0 19 13 19 249 0 174 -4 272 -14 324 -53 277 -254 514
-445 524 -31 1 -80 -4 -110 -12z"/>
<path d="M2537 2360 c-115 -45 -220 -155 -294 -308 -70 -145 -83 -227 -83
-524 0 -234 1 -248 18 -248 15 0 21 13 31 70 27 147 113 261 244 324 65 31
168 66 330 111 67 18 127 67 160 129 18 33 22 58 22 131 0 78 -4 98 -28 146
-40 82 -109 143 -192 168 -82 26 -145 26 -208 1z"/>
<path d="M1237 1799 c-41 -63 -47 -189 -13 -261 27 -56 90 -114 143 -132 57
-20 123 -20 228 -1 44 8 98 15 120 15 75 0 171 -61 190 -121 9 -28 45 -25 45
4 0 76 -62 200 -128 258 -55 49 -185 105 -334 145 -133 36 -209 70 -226 101
-8 14 -11 13 -25 -8z"/>
<path d="M2907 1789 c-32 -32 -66 -45 -227 -89 -154 -43 -267 -96 -325 -155
-52 -52 -100 -147 -110 -217 -7 -43 -5 -48 11 -48 12 0 27 15 39 37 24 45 97
93 154 100 22 3 88 -2 147 -12 178 -29 272 -7 338 80 47 62 59 102 53 185 -4
67 -31 152 -46 149 -3 -1 -19 -14 -34 -30z"/>
<path d="M1426 1128 c-22 -35 -44 -131 -35 -155 10 -26 45 -47 66 -39 9 4 22
1 29 -5 10 -9 15 -8 18 2 2 8 9 29 15 48 15 47 14 50 -16 62 -31 12 -51 -8
-27 -26 14 -9 13 -14 -5 -35 -20 -24 -22 -24 -35 -7 -11 14 -12 27 -5 55 15
55 30 92 39 92 22 0 40 -14 40 -30 0 -23 27 -33 34 -14 9 25 7 33 -14 54 -28
28 -85 27 -104 -2z"/>
<path d="M2673 1134 c-8 -4 -10 -33 -6 -102 2 -53 6 -103 8 -109 7 -23 35 -1
35 27 0 25 15 40 39 40 4 0 13 -11 19 -24 8 -18 16 -23 32 -19 11 3 20 9 18
12 -2 4 -25 46 -52 94 -47 83 -60 94 -93 81z m54 -116 c-19 -11 -27 1 -27 40
l1 37 18 -35 c13 -24 16 -37 8 -42z"/>
<path d="M1607 1043 c-30 -133 -31 -141 -10 -145 14 -3 20 5 28 37 8 29 16 40
30 40 17 0 20 -7 18 -47 -1 -27 2 -48 7 -48 5 0 16 -3 25 -6 15 -6 17 0 13 54
-2 43 1 63 10 67 7 2 12 21 12 43 0 42 -13 53 -87 67 l-31 6 -15 -68z m91 -5
c3 -24 0 -28 -22 -28 -22 0 -26 4 -26 31 0 26 3 30 23 27 16 -2 23 -11 25 -30z"/>
<path d="M2484 1075 c-14 -22 -15 -33 -4 -91 16 -81 38 -109 83 -100 40 8 47
16 50 52 1 20 -3 29 -15 32 -13 3 -18 -3 -18 -21 0 -28 -23 -42 -39 -23 -14
17 -34 113 -27 131 7 19 32 19 40 0 5 -15 46 -22 46 -7 0 4 -7 18 -16 30 -22
32 -78 30 -100 -3z"/>
<path d="M1815 1067 c-12 -33 -21 -155 -14 -174 16 -43 83 -58 113 -24 10 10
21 48 26 82 14 96 13 109 -9 109 -16 0 -21 -10 -26 -57 -10 -86 -18 -108 -45
-111 -23 -4 -23 -4 -16 86 6 77 5 90 -9 96 -9 3 -18 0 -20 -7z"/>
<path d="M2302 1063 c-17 -3 -21 -10 -18 -26 3 -12 8 -44 11 -72 3 -27 9 -65
12 -83 l6 -34 46 7 c25 4 52 12 59 17 16 14 15 60 -2 83 -9 12 -12 32 -9 52 9
55 -22 72 -105 56z m68 -47 c0 -20 -16 -36 -36 -36 -2 0 -4 14 -4 30 0 23 4
30 20 30 14 0 20 -7 20 -24z m15 -87 c4 -12 2 -26 -3 -31 -17 -17 -42 -1 -42
27 0 32 35 35 45 4z"/>
<path d="M2010 1013 c0 -21 -3 -68 -7 -105 -6 -65 -5 -68 16 -68 15 0 21 6 21
23 0 49 11 67 40 67 51 0 76 51 50 101 -9 15 -22 19 -65 19 l-55 0 0 -37z m85
-23 c0 -18 -6 -26 -22 -28 -20 -3 -23 1 -23 28 0 27 3 31 23 28 16 -2 22 -10
22 -28z"/>
<path d="M7248 3018 l-24 -31 -67 16 c-163 41 -439 4 -667 -90 -416 -171 -732
-553 -825 -998 -20 -96 -23 -294 -6 -380 82 -404 354 -638 800 -686 58 -6 149
-9 201 -6 106 7 299 44 316 61 10 9 314 650 314 661 0 2 -26 -11 -57 -30 -139
-82 -290 -127 -428 -126 -159 0 -272 40 -366 128 -271 254 -94 739 311 849
101 27 284 25 380 -5 87 -27 134 -49 212 -103 l57 -38 15 22 c33 53 308 560
304 562 -15 11 -430 226 -437 226 -5 0 -19 -14 -33 -32z"/>
<path d="M4294 2988 c-15 -29 -87 -169 -160 -310 -74 -142 -134 -260 -134
-263 0 -3 34 -5 75 -5 44 0 75 -4 75 -10 0 -6 -83 -331 -184 -723 -102 -391
-188 -724 -191 -739 l-7 -28 530 0 c587 0 633 4 791 63 211 79 385 251 448
442 22 67 27 98 27 190 0 129 -19 205 -70 282 -32 49 -123 123 -151 123 -26 0
-11 16 47 49 82 47 200 158 254 239 105 158 125 338 54 488 -33 70 -111 149
-181 184 -132 64 -133 64 -689 68 l-507 3 -27 -53z m748 -518 c49 -14 68 -43
68 -103 0 -80 -40 -142 -113 -172 -44 -18 -287 -22 -287 -4 0 6 14 73 32 150
l31 139 116 0 c64 0 133 -5 153 -10z m-123 -690 c57 -28 85 -79 79 -140 -8
-80 -64 -143 -155 -176 -49 -17 -323 -20 -323 -3 0 7 19 85 42 175 l42 164
139 0 c117 0 144 -3 176 -20z"/>
<path d="M8033 3028 c-4 -7 -78 -143 -165 -303 l-157 -290 85 -3 85 -3 -277
-547 c-152 -301 -326 -643 -386 -759 l-109 -213 369 0 369 0 31 72 c16 40 51
124 77 185 l47 113 229 0 229 0 0 -185 0 -185 340 0 340 0 0 38 c0 66 -80
1965 -86 2030 l-6 62 -503 0 c-392 0 -506 -3 -512 -12z m430 -960 l6 -298
-135 0 c-105 0 -135 3 -131 13 3 6 58 136 122 287 64 151 119 281 122 288 3 7
7 12 8 10 1 -2 5 -137 8 -300z"/>
</g>
</svg>
